<mxfile host="app.diagrams.net" modified="2020-09-15T07:44:53.531Z" agent="5.0 (Windows NT 6.1; WOW64) AppleWebKit/537.36 (KHTML, like Gecko) Chrome/72.0.3626.81 Safari/537.36 SE 2.X MetaSr 1.0" etag="pthteX7IdABIB8FICwG-" version="13.7.1" type="github">
  <diagram id="_dh3uFdQdFFy7gmEmrhb" name="第 1 页">
    <mxGraphModel dx="1987" dy="1109" grid="1" gridSize="10" guides="1" tooltips="1" connect="1" arrows="1" fold="1" page="1" pageScale="1" pageWidth="1150" pageHeight="1150" math="0" shadow="0">
      <root>
        <mxCell id="0" />
        <mxCell id="1" parent="0" />
        <mxCell id="FxIcAEctN6eVur0ZjvxM-1" value="BiLSTM" style="rounded=0;whiteSpace=wrap;html=1;fontSize=22;verticalAlign=top;fillColor=#f8cecc;strokeColor=#b85450;fontStyle=1" vertex="1" parent="1">
          <mxGeometry x="421.24" y="640.13" width="440" height="173.12" as="geometry" />
        </mxCell>
        <mxCell id="FxIcAEctN6eVur0ZjvxM-2" value="" style="shape=mxgraph.bpmn.script_task;html=1;outlineConnect=0;fillColor=#fff2cc;strokeColor=#d6b656;" vertex="1" parent="1">
          <mxGeometry x="47" y="106.88" width="60" height="52.25" as="geometry" />
        </mxCell>
        <mxCell id="FxIcAEctN6eVur0ZjvxM-3" value="CRF" style="rounded=0;whiteSpace=wrap;html=1;fontSize=22;verticalAlign=top;fillColor=#f8cecc;strokeColor=#b85450;fontStyle=1" vertex="1" parent="1">
          <mxGeometry x="421.24" y="880.1300000000001" width="440" height="79" as="geometry" />
        </mxCell>
        <mxCell id="FxIcAEctN6eVur0ZjvxM-4" value="" style="shape=process;whiteSpace=wrap;html=1;backgroundOutline=1;labelBackgroundColor=none;fontFamily=Georgia;fontSize=20;" vertex="1" parent="1">
          <mxGeometry x="442.74" y="763.25" width="50" height="35" as="geometry" />
        </mxCell>
        <mxCell id="FxIcAEctN6eVur0ZjvxM-5" value="LSTM" style="text;html=1;align=center;verticalAlign=middle;whiteSpace=wrap;rounded=0;labelBackgroundColor=none;fontFamily=Georgia;fontSize=15;" vertex="1" parent="1">
          <mxGeometry x="447.74" y="771.25" width="40" height="20" as="geometry" />
        </mxCell>
        <mxCell id="FxIcAEctN6eVur0ZjvxM-6" value="" style="shape=process;whiteSpace=wrap;html=1;backgroundOutline=1;labelBackgroundColor=none;fontFamily=Georgia;fontSize=20;" vertex="1" parent="1">
          <mxGeometry x="442.74" y="692.13" width="50" height="35" as="geometry" />
        </mxCell>
        <mxCell id="FxIcAEctN6eVur0ZjvxM-7" value="LSTM" style="text;html=1;align=center;verticalAlign=middle;whiteSpace=wrap;rounded=0;labelBackgroundColor=none;fontFamily=Georgia;fontSize=15;" vertex="1" parent="1">
          <mxGeometry x="447.74" y="700.13" width="40" height="20" as="geometry" />
        </mxCell>
        <mxCell id="FxIcAEctN6eVur0ZjvxM-8" value="" style="shape=process;whiteSpace=wrap;html=1;backgroundOutline=1;labelBackgroundColor=none;fontFamily=Georgia;fontSize=20;" vertex="1" parent="1">
          <mxGeometry x="527.24" y="763.25" width="50" height="35" as="geometry" />
        </mxCell>
        <mxCell id="FxIcAEctN6eVur0ZjvxM-9" value="LSTM" style="text;html=1;align=center;verticalAlign=middle;whiteSpace=wrap;rounded=0;labelBackgroundColor=none;fontFamily=Georgia;fontSize=15;" vertex="1" parent="1">
          <mxGeometry x="532.24" y="771.25" width="40" height="20" as="geometry" />
        </mxCell>
        <mxCell id="FxIcAEctN6eVur0ZjvxM-10" value="" style="shape=process;whiteSpace=wrap;html=1;backgroundOutline=1;labelBackgroundColor=none;fontFamily=Georgia;fontSize=20;" vertex="1" parent="1">
          <mxGeometry x="527.24" y="692.13" width="50" height="35" as="geometry" />
        </mxCell>
        <mxCell id="FxIcAEctN6eVur0ZjvxM-11" value="LSTM" style="text;html=1;align=center;verticalAlign=middle;whiteSpace=wrap;rounded=0;labelBackgroundColor=none;fontFamily=Georgia;fontSize=15;" vertex="1" parent="1">
          <mxGeometry x="532.24" y="700.13" width="40" height="20" as="geometry" />
        </mxCell>
        <mxCell id="FxIcAEctN6eVur0ZjvxM-12" value="" style="shape=process;whiteSpace=wrap;html=1;backgroundOutline=1;labelBackgroundColor=none;fontFamily=Georgia;fontSize=20;" vertex="1" parent="1">
          <mxGeometry x="620.24" y="763.25" width="50" height="35" as="geometry" />
        </mxCell>
        <mxCell id="FxIcAEctN6eVur0ZjvxM-13" value="LSTM" style="text;html=1;align=center;verticalAlign=middle;whiteSpace=wrap;rounded=0;labelBackgroundColor=none;fontFamily=Georgia;fontSize=15;" vertex="1" parent="1">
          <mxGeometry x="625.24" y="771.25" width="40" height="20" as="geometry" />
        </mxCell>
        <mxCell id="FxIcAEctN6eVur0ZjvxM-14" value="" style="shape=process;whiteSpace=wrap;html=1;backgroundOutline=1;labelBackgroundColor=none;fontFamily=Georgia;fontSize=20;" vertex="1" parent="1">
          <mxGeometry x="620.24" y="692.13" width="50" height="35" as="geometry" />
        </mxCell>
        <mxCell id="FxIcAEctN6eVur0ZjvxM-15" value="LSTM" style="text;html=1;align=center;verticalAlign=middle;whiteSpace=wrap;rounded=0;labelBackgroundColor=none;fontFamily=Georgia;fontSize=15;" vertex="1" parent="1">
          <mxGeometry x="625.24" y="700.13" width="40" height="20" as="geometry" />
        </mxCell>
        <mxCell id="FxIcAEctN6eVur0ZjvxM-16" value="" style="shape=process;whiteSpace=wrap;html=1;backgroundOutline=1;labelBackgroundColor=none;fontFamily=Georgia;fontSize=20;" vertex="1" parent="1">
          <mxGeometry x="783.24" y="763.25" width="50" height="35" as="geometry" />
        </mxCell>
        <mxCell id="FxIcAEctN6eVur0ZjvxM-17" value="LSTM" style="text;html=1;align=center;verticalAlign=middle;whiteSpace=wrap;rounded=0;labelBackgroundColor=none;fontFamily=Georgia;fontSize=15;" vertex="1" parent="1">
          <mxGeometry x="788.24" y="771.25" width="40" height="20" as="geometry" />
        </mxCell>
        <mxCell id="FxIcAEctN6eVur0ZjvxM-18" value="" style="shape=process;whiteSpace=wrap;html=1;backgroundOutline=1;labelBackgroundColor=none;fontFamily=Georgia;fontSize=20;" vertex="1" parent="1">
          <mxGeometry x="783.24" y="692.13" width="50" height="35" as="geometry" />
        </mxCell>
        <mxCell id="FxIcAEctN6eVur0ZjvxM-19" value="LSTM" style="text;html=1;align=center;verticalAlign=middle;whiteSpace=wrap;rounded=0;labelBackgroundColor=none;fontFamily=Georgia;fontSize=15;" vertex="1" parent="1">
          <mxGeometry x="788.24" y="700.13" width="40" height="20" as="geometry" />
        </mxCell>
        <mxCell id="FxIcAEctN6eVur0ZjvxM-20" value="…" style="text;html=1;fontSize=24;fontStyle=1;verticalAlign=middle;align=center;labelBackgroundColor=none;" vertex="1" parent="1">
          <mxGeometry x="677.74" y="752.25" width="100" height="40" as="geometry" />
        </mxCell>
        <mxCell id="FxIcAEctN6eVur0ZjvxM-21" value="…" style="text;strokeColor=none;fillColor=none;html=1;fontSize=24;fontStyle=1;verticalAlign=middle;align=center;labelBackgroundColor=none;" vertex="1" parent="1">
          <mxGeometry x="679.74" y="680.13" width="100" height="40" as="geometry" />
        </mxCell>
        <mxCell id="FxIcAEctN6eVur0ZjvxM-22" value="预测标签序列" style="rounded=0;whiteSpace=wrap;html=1;fontSize=22;verticalAlign=top;fillColor=#f8cecc;strokeColor=#b85450;fontStyle=1" vertex="1" parent="1">
          <mxGeometry x="422.11" y="1020.1300000000001" width="440" height="79" as="geometry" />
        </mxCell>
        <mxCell id="FxIcAEctN6eVur0ZjvxM-23" value="" style="ellipse;whiteSpace=wrap;html=1;aspect=fixed;labelBackgroundColor=none;fontFamily=Georgia;fontSize=15;" vertex="1" parent="1">
          <mxGeometry x="447.36" y="1057.88" width="35.5" height="35.5" as="geometry" />
        </mxCell>
        <mxCell id="FxIcAEctN6eVur0ZjvxM-24" value="B" style="text;html=1;align=center;verticalAlign=middle;whiteSpace=wrap;rounded=0;labelBackgroundColor=none;fontFamily=Georgia;fontSize=15;" vertex="1" parent="1">
          <mxGeometry x="445.11" y="1066.13" width="40" height="20" as="geometry" />
        </mxCell>
        <mxCell id="FxIcAEctN6eVur0ZjvxM-25" value="" style="ellipse;whiteSpace=wrap;html=1;aspect=fixed;labelBackgroundColor=none;fontFamily=Georgia;fontSize=15;" vertex="1" parent="1">
          <mxGeometry x="529.36" y="1057.88" width="35.5" height="35.5" as="geometry" />
        </mxCell>
        <mxCell id="FxIcAEctN6eVur0ZjvxM-26" value="I" style="text;html=1;align=center;verticalAlign=middle;whiteSpace=wrap;rounded=0;labelBackgroundColor=none;fontFamily=Georgia;fontSize=15;" vertex="1" parent="1">
          <mxGeometry x="527.11" y="1066.13" width="40" height="20" as="geometry" />
        </mxCell>
        <mxCell id="FxIcAEctN6eVur0ZjvxM-27" value="" style="ellipse;whiteSpace=wrap;html=1;aspect=fixed;labelBackgroundColor=none;fontFamily=Georgia;fontSize=15;" vertex="1" parent="1">
          <mxGeometry x="626.86" y="1058.13" width="35.5" height="35.5" as="geometry" />
        </mxCell>
        <mxCell id="FxIcAEctN6eVur0ZjvxM-28" value="O" style="text;html=1;align=center;verticalAlign=middle;whiteSpace=wrap;rounded=0;labelBackgroundColor=none;fontFamily=Georgia;fontSize=15;" vertex="1" parent="1">
          <mxGeometry x="624.61" y="1066.38" width="40" height="20" as="geometry" />
        </mxCell>
        <mxCell id="FxIcAEctN6eVur0ZjvxM-29" value="" style="ellipse;whiteSpace=wrap;html=1;aspect=fixed;labelBackgroundColor=none;fontFamily=Georgia;fontSize=15;" vertex="1" parent="1">
          <mxGeometry x="789.8600000000001" y="1058.13" width="35.5" height="35.5" as="geometry" />
        </mxCell>
        <mxCell id="FxIcAEctN6eVur0ZjvxM-30" value="O" style="text;html=1;align=center;verticalAlign=middle;whiteSpace=wrap;rounded=0;labelBackgroundColor=none;fontFamily=Georgia;fontSize=15;" vertex="1" parent="1">
          <mxGeometry x="787.6100000000001" y="1066.38" width="40" height="20" as="geometry" />
        </mxCell>
        <mxCell id="FxIcAEctN6eVur0ZjvxM-31" value="自标注平台" style="shape=cylinder;whiteSpace=wrap;html=1;boundedLbl=1;backgroundOutline=1;labelBackgroundColor=none;fontFamily=Georgia;fontSize=20;fontStyle=1;fillColor=#fff2cc;strokeColor=#d6b656;" vertex="1" parent="1">
          <mxGeometry x="231.24" y="89.88" width="150" height="86.25" as="geometry" />
        </mxCell>
        <mxCell id="FxIcAEctN6eVur0ZjvxM-32" value="…" style="text;strokeColor=none;fillColor=none;html=1;fontSize=24;fontStyle=1;verticalAlign=middle;align=center;labelBackgroundColor=none;" vertex="1" parent="1">
          <mxGeometry x="679.61" y="1048.63" width="100" height="40" as="geometry" />
        </mxCell>
        <mxCell id="FxIcAEctN6eVur0ZjvxM-33" value="…" style="text;html=1;fontSize=24;fontStyle=1;verticalAlign=middle;align=center;labelBackgroundColor=none;" vertex="1" parent="1">
          <mxGeometry x="675.74" y="907.1300000000001" width="100" height="40" as="geometry" />
        </mxCell>
        <mxCell id="FxIcAEctN6eVur0ZjvxM-34" value="数据序列化" style="rounded=0;whiteSpace=wrap;html=1;strokeWidth=1;fontSize=26;fillColor=#f8cecc;strokeColor=#b85450;fontStyle=1" vertex="1" parent="1">
          <mxGeometry x="534.74" y="276.13" width="200" height="50" as="geometry" />
        </mxCell>
        <mxCell id="FxIcAEctN6eVur0ZjvxM-35" value="BERT Embedding" style="rounded=0;whiteSpace=wrap;html=1;strokeWidth=1;fontSize=22;verticalAlign=top;fillColor=#f8cecc;strokeColor=#b85450;fontStyle=1" vertex="1" parent="1">
          <mxGeometry x="421.24" y="384.80999999999995" width="440" height="172.38" as="geometry" />
        </mxCell>
        <mxCell id="FxIcAEctN6eVur0ZjvxM-36" value="" style="ellipse;whiteSpace=wrap;html=1;aspect=fixed;labelBackgroundColor=none;fontFamily=Georgia;fontSize=15;" vertex="1" parent="1">
          <mxGeometry x="448.74" y="917.8800000000001" width="35.5" height="35.5" as="geometry" />
        </mxCell>
        <mxCell id="FxIcAEctN6eVur0ZjvxM-37" value="" style="ellipse;whiteSpace=wrap;html=1;aspect=fixed;labelBackgroundColor=none;fontFamily=Georgia;fontSize=15;" vertex="1" parent="1">
          <mxGeometry x="534.74" y="917.8800000000001" width="35.5" height="35.5" as="geometry" />
        </mxCell>
        <mxCell id="FxIcAEctN6eVur0ZjvxM-38" value="" style="ellipse;whiteSpace=wrap;html=1;aspect=fixed;labelBackgroundColor=none;fontFamily=Georgia;fontSize=15;" vertex="1" parent="1">
          <mxGeometry x="625.49" y="917.8800000000001" width="35.5" height="35.5" as="geometry" />
        </mxCell>
        <mxCell id="FxIcAEctN6eVur0ZjvxM-39" value="" style="ellipse;whiteSpace=wrap;html=1;aspect=fixed;labelBackgroundColor=none;fontFamily=Georgia;fontSize=15;" vertex="1" parent="1">
          <mxGeometry x="790.49" y="917.8800000000001" width="35.5" height="35.5" as="geometry" />
        </mxCell>
        <mxCell id="FxIcAEctN6eVur0ZjvxM-40" value="" style="ellipse;whiteSpace=wrap;html=1;aspect=fixed;labelBackgroundColor=none;fontFamily=Georgia;fontSize=15;" vertex="1" parent="1">
          <mxGeometry x="447.61" y="427.19000000000005" width="35.5" height="35.5" as="geometry" />
        </mxCell>
        <mxCell id="FxIcAEctN6eVur0ZjvxM-41" value="" style="ellipse;whiteSpace=wrap;html=1;aspect=fixed;labelBackgroundColor=none;fontFamily=Georgia;fontSize=15;" vertex="1" parent="1">
          <mxGeometry x="533.61" y="427.19000000000005" width="35.5" height="35.5" as="geometry" />
        </mxCell>
        <mxCell id="FxIcAEctN6eVur0ZjvxM-42" value="" style="ellipse;whiteSpace=wrap;html=1;aspect=fixed;labelBackgroundColor=none;fontFamily=Georgia;fontSize=15;" vertex="1" parent="1">
          <mxGeometry x="624.36" y="427.19000000000005" width="35.5" height="35.5" as="geometry" />
        </mxCell>
        <mxCell id="FxIcAEctN6eVur0ZjvxM-43" value="" style="ellipse;whiteSpace=wrap;html=1;aspect=fixed;labelBackgroundColor=none;fontFamily=Georgia;fontSize=15;" vertex="1" parent="1">
          <mxGeometry x="789.3600000000001" y="427.19000000000005" width="35.5" height="35.5" as="geometry" />
        </mxCell>
        <mxCell id="FxIcAEctN6eVur0ZjvxM-44" value="…" style="text;strokeColor=none;fillColor=none;html=1;fontSize=24;fontStyle=1;verticalAlign=middle;align=center;labelBackgroundColor=none;" vertex="1" parent="1">
          <mxGeometry x="672.74" y="418.94000000000005" width="100" height="40" as="geometry" />
        </mxCell>
        <mxCell id="FxIcAEctN6eVur0ZjvxM-45" value="…" style="text;strokeColor=none;fillColor=none;html=1;fontSize=24;fontStyle=1;verticalAlign=middle;align=center;labelBackgroundColor=none;rotation=90;" vertex="1" parent="1">
          <mxGeometry x="613.74" y="462.30999999999995" width="73" height="40" as="geometry" />
        </mxCell>
        <mxCell id="FxIcAEctN6eVur0ZjvxM-46" value="" style="ellipse;whiteSpace=wrap;html=1;aspect=fixed;labelBackgroundColor=none;fontFamily=Georgia;fontSize=15;" vertex="1" parent="1">
          <mxGeometry x="790.3600000000001" y="507.30999999999995" width="35.5" height="35.5" as="geometry" />
        </mxCell>
        <mxCell id="FxIcAEctN6eVur0ZjvxM-47" value="" style="ellipse;whiteSpace=wrap;html=1;aspect=fixed;labelBackgroundColor=none;fontFamily=Georgia;fontSize=15;fillColor=#ffe6cc;strokeColor=#d79b00;" vertex="1" parent="1">
          <mxGeometry x="534.61" y="507.30999999999995" width="35.5" height="35.5" as="geometry" />
        </mxCell>
        <mxCell id="FxIcAEctN6eVur0ZjvxM-48" value="" style="ellipse;whiteSpace=wrap;html=1;aspect=fixed;labelBackgroundColor=none;fontFamily=Georgia;fontSize=15;fillColor=#ffe6cc;strokeColor=#d79b00;" vertex="1" parent="1">
          <mxGeometry x="625.36" y="507.30999999999995" width="35.5" height="35.5" as="geometry" />
        </mxCell>
        <mxCell id="FxIcAEctN6eVur0ZjvxM-49" value="" style="ellipse;whiteSpace=wrap;html=1;aspect=fixed;labelBackgroundColor=none;fontFamily=Georgia;fontSize=15;fillColor=#ffe6cc;strokeColor=#d79b00;" vertex="1" parent="1">
          <mxGeometry x="448.61" y="507.30999999999995" width="35.5" height="35.5" as="geometry" />
        </mxCell>
        <mxCell id="FxIcAEctN6eVur0ZjvxM-50" value="…" style="text;strokeColor=none;fillColor=none;html=1;fontSize=24;fontStyle=1;verticalAlign=middle;align=center;labelBackgroundColor=none;" vertex="1" parent="1">
          <mxGeometry x="673.74" y="499.30999999999995" width="100" height="40" as="geometry" />
        </mxCell>
        <mxCell id="FxIcAEctN6eVur0ZjvxM-51" value="目标域数据" style="shape=note;whiteSpace=wrap;html=1;size=14;verticalAlign=top;align=left;spacingTop=-6;strokeWidth=1;fontSize=22;fillColor=#f8cecc;strokeColor=#b85450;fontStyle=1" vertex="1" parent="1">
          <mxGeometry x="505.74" y="77" width="258" height="132.13" as="geometry" />
        </mxCell>
        <mxCell id="FxIcAEctN6eVur0ZjvxM-52" value="" style="endArrow=none;html=1;fontSize=22;exitX=-0.001;exitY=0.235;exitDx=0;exitDy=0;exitPerimeter=0;entryX=1;entryY=0.231;entryDx=0;entryDy=0;entryPerimeter=0;" edge="1" parent="1" source="FxIcAEctN6eVur0ZjvxM-51" target="FxIcAEctN6eVur0ZjvxM-51">
          <mxGeometry width="50" height="50" relative="1" as="geometry">
            <mxPoint x="561.24" y="169.13" as="sourcePoint" />
            <mxPoint x="761.24" y="104.13" as="targetPoint" />
          </mxGeometry>
        </mxCell>
        <mxCell id="FxIcAEctN6eVur0ZjvxM-53" value="&lt;span style=&quot;color: rgb(51, 51, 51); font-family: &amp;quot;segoe ui&amp;quot;, &amp;quot;lucida grande&amp;quot;, helvetica, arial, &amp;quot;microsoft yahei&amp;quot;, freesans, arimo, &amp;quot;droid sans&amp;quot;, &amp;quot;wenquanyi micro hei&amp;quot;, &amp;quot;hiragino sans gb&amp;quot;, &amp;quot;hiragino sans gb w3&amp;quot;, arial, sans-serif; font-size: 16px; text-indent: 32px;&quot;&gt;2016年，美军升级网络空间司令部，将其并列于战略司令部的职能部门，并宣称将于2017年完成133支网络作战分队的建立……&lt;/span&gt;" style="text;html=1;strokeColor=none;fillColor=none;align=left;verticalAlign=middle;whiteSpace=wrap;rounded=0;fontSize=16;" vertex="1" parent="1">
          <mxGeometry x="511.24" y="110.88" width="250" height="82.25" as="geometry" />
        </mxCell>
        <mxCell id="FxIcAEctN6eVur0ZjvxM-54" value="&lt;b&gt;源域数据&lt;/b&gt;" style="shape=note;whiteSpace=wrap;html=1;size=14;verticalAlign=top;align=left;spacingTop=-6;strokeWidth=1;fontSize=22;fillColor=#dae8fc;strokeColor=#6c8ebf;" vertex="1" parent="1">
          <mxGeometry x="881.5" y="235.07" width="258" height="132.13" as="geometry" />
        </mxCell>
        <mxCell id="FxIcAEctN6eVur0ZjvxM-55" value="" style="endArrow=none;html=1;fontSize=22;exitX=-0.001;exitY=0.235;exitDx=0;exitDy=0;exitPerimeter=0;entryX=1;entryY=0.231;entryDx=0;entryDy=0;entryPerimeter=0;" edge="1" parent="1" source="FxIcAEctN6eVur0ZjvxM-54" target="FxIcAEctN6eVur0ZjvxM-54">
          <mxGeometry width="50" height="50" relative="1" as="geometry">
            <mxPoint x="937" y="327.2" as="sourcePoint" />
            <mxPoint x="1137" y="262.2" as="targetPoint" />
          </mxGeometry>
        </mxCell>
        <mxCell id="FxIcAEctN6eVur0ZjvxM-56" value="&lt;span style=&quot;color: rgb(51 , 51 , 51) ; font-family: &amp;#34;segoe ui&amp;#34; , &amp;#34;lucida grande&amp;#34; , &amp;#34;helvetica&amp;#34; , &amp;#34;arial&amp;#34; , &amp;#34;microsoft yahei&amp;#34; , &amp;#34;freesans&amp;#34; , &amp;#34;arimo&amp;#34; , &amp;#34;droid sans&amp;#34; , &amp;#34;wenquanyi micro hei&amp;#34; , &amp;#34;hiragino sans gb&amp;#34; , &amp;#34;hiragino sans gb w3&amp;#34; , &amp;#34;arial&amp;#34; , sans-serif ; font-size: 16px ; text-indent: 32px&quot;&gt;新浪微博如今已经成为了自媒体的第一大阵地，每天活跃用户量达5亿以上，每日产生新数据约1000T……&lt;/span&gt;" style="text;html=1;strokeColor=none;fillColor=none;align=left;verticalAlign=middle;whiteSpace=wrap;rounded=0;fontSize=16;" vertex="1" parent="1">
          <mxGeometry x="887" y="268.95" width="250" height="82.25" as="geometry" />
        </mxCell>
        <mxCell id="FxIcAEctN6eVur0ZjvxM-57" value="源域模型参数" style="shape=parallelogram;perimeter=parallelogramPerimeter;whiteSpace=wrap;html=1;strokeWidth=1;fontSize=23;fontStyle=1;fillColor=#dae8fc;strokeColor=#6c8ebf;" vertex="1" parent="1">
          <mxGeometry x="61.24000000000001" y="692.13" width="230" height="86.88" as="geometry" />
        </mxCell>
        <mxCell id="FxIcAEctN6eVur0ZjvxM-58" value="" style="endArrow=classic;html=1;fontSize=23;" edge="1" parent="1">
          <mxGeometry width="50" height="50" relative="1" as="geometry">
            <mxPoint x="111.24000000000001" y="130.13" as="sourcePoint" />
            <mxPoint x="221.24" y="130.13" as="targetPoint" />
          </mxGeometry>
        </mxCell>
        <mxCell id="FxIcAEctN6eVur0ZjvxM-59" value="" style="endArrow=classic;html=1;fontSize=23;" edge="1" parent="1">
          <mxGeometry width="50" height="50" relative="1" as="geometry">
            <mxPoint x="390.74" y="132.42000000000002" as="sourcePoint" />
            <mxPoint x="500.74" y="132.42000000000002" as="targetPoint" />
          </mxGeometry>
        </mxCell>
        <mxCell id="FxIcAEctN6eVur0ZjvxM-60" value="原始数据" style="text;html=1;strokeColor=none;fillColor=none;align=center;verticalAlign=middle;whiteSpace=wrap;rounded=0;fontSize=19;fontStyle=1" vertex="1" parent="1">
          <mxGeometry x="40" y="176.13" width="84" height="33" as="geometry" />
        </mxCell>
        <mxCell id="FxIcAEctN6eVur0ZjvxM-61" value="" style="shape=flexArrow;endArrow=classic;html=1;fontSize=19;endWidth=31.666666666666668;endSize=7.608333333333334;width=16.666666666666668;fillColor=#f8cecc;strokeColor=#b85450;" edge="1" parent="1">
          <mxGeometry width="50" height="50" relative="1" as="geometry">
            <mxPoint x="631.24" y="219.13" as="sourcePoint" />
            <mxPoint x="631.24" y="269.13" as="targetPoint" />
          </mxGeometry>
        </mxCell>
        <mxCell id="FxIcAEctN6eVur0ZjvxM-62" value="" style="shape=flexArrow;endArrow=classic;html=1;fontSize=19;endWidth=31.666666666666668;endSize=7.608333333333334;width=16.666666666666668;fillColor=#dae8fc;strokeColor=#6c8ebf;" edge="1" parent="1">
          <mxGeometry width="50" height="50" relative="1" as="geometry">
            <mxPoint x="665.24" y="331.81" as="sourcePoint" />
            <mxPoint x="665.24" y="381.80999999999995" as="targetPoint" />
          </mxGeometry>
        </mxCell>
        <mxCell id="FxIcAEctN6eVur0ZjvxM-63" value="" style="shape=flexArrow;endArrow=classic;html=1;fontSize=19;endWidth=31.666666666666668;endSize=7.608333333333334;width=16.666666666666668;fillColor=#f8cecc;strokeColor=#b85450;" edge="1" parent="1">
          <mxGeometry width="50" height="50" relative="1" as="geometry">
            <mxPoint x="593.24" y="569.13" as="sourcePoint" />
            <mxPoint x="593.24" y="619.13" as="targetPoint" />
          </mxGeometry>
        </mxCell>
        <mxCell id="FxIcAEctN6eVur0ZjvxM-64" value="" style="shape=flexArrow;endArrow=classic;html=1;fontSize=19;endWidth=31.666666666666668;endSize=7.608333333333334;width=16.666666666666668;fillColor=#dae8fc;strokeColor=#6c8ebf;" edge="1" parent="1">
          <mxGeometry width="50" height="50" relative="1" as="geometry">
            <mxPoint x="663.92" y="569.13" as="sourcePoint" />
            <mxPoint x="663.92" y="619.13" as="targetPoint" />
          </mxGeometry>
        </mxCell>
        <mxCell id="FxIcAEctN6eVur0ZjvxM-65" value="" style="shape=flexArrow;endArrow=classic;html=1;fontSize=19;endWidth=31.666666666666668;endSize=7.608333333333334;width=16.666666666666668;fillColor=#f8cecc;strokeColor=#b85450;" edge="1" parent="1">
          <mxGeometry width="50" height="50" relative="1" as="geometry">
            <mxPoint x="594.24" y="332.1300000000001" as="sourcePoint" />
            <mxPoint x="594.24" y="382.1300000000001" as="targetPoint" />
          </mxGeometry>
        </mxCell>
        <mxCell id="FxIcAEctN6eVur0ZjvxM-66" value="" style="shape=flexArrow;endArrow=classic;html=1;fontSize=19;endWidth=31.666666666666668;endSize=7.608333333333334;width=16.666666666666668;fillColor=#f8cecc;strokeColor=#b85450;" edge="1" parent="1">
          <mxGeometry width="50" height="50" relative="1" as="geometry">
            <mxPoint x="631.2399999999999" y="821.75" as="sourcePoint" />
            <mxPoint x="631.2399999999999" y="871.75" as="targetPoint" />
          </mxGeometry>
        </mxCell>
        <mxCell id="FxIcAEctN6eVur0ZjvxM-67" value="" style="shape=flexArrow;endArrow=classic;html=1;fontSize=19;endWidth=31.666666666666668;endSize=7.608333333333334;width=16.666666666666668;fillColor=#f8cecc;strokeColor=#b85450;" edge="1" parent="1">
          <mxGeometry width="50" height="50" relative="1" as="geometry">
            <mxPoint x="633.24" y="966.1299999999999" as="sourcePoint" />
            <mxPoint x="633.24" y="1016.1299999999999" as="targetPoint" />
          </mxGeometry>
        </mxCell>
        <mxCell id="FxIcAEctN6eVur0ZjvxM-68" value="" style="shape=flexArrow;endArrow=classic;html=1;fontSize=19;endWidth=36;endSize=10.67;width=16;fillColor=#dae8fc;strokeColor=#6c8ebf;" edge="1" parent="1">
          <mxGeometry width="50" height="50" relative="1" as="geometry">
            <mxPoint x="841.24" y="300.64" as="sourcePoint" />
            <mxPoint x="751.24" y="300.64" as="targetPoint" />
          </mxGeometry>
        </mxCell>
        <mxCell id="FxIcAEctN6eVur0ZjvxM-69" value="" style="shape=flexArrow;endArrow=classic;html=1;fontSize=19;endWidth=36;endSize=10.67;width=16;fillColor=#dae8fc;strokeColor=#6c8ebf;" edge="1" parent="1">
          <mxGeometry width="50" height="50" relative="1" as="geometry">
            <mxPoint x="401.23999999999955" y="734.86" as="sourcePoint" />
            <mxPoint x="311.23999999999955" y="734.86" as="targetPoint" />
          </mxGeometry>
        </mxCell>
        <mxCell id="FxIcAEctN6eVur0ZjvxM-70" value="" style="endArrow=classic;html=1;fontSize=19;exitX=0.52;exitY=0.003;exitDx=0;exitDy=0;exitPerimeter=0;fontColor=#66B2FF;fillColor=#dae8fc;strokeColor=#6c8ebf;" edge="1" parent="1" source="FxIcAEctN6eVur0ZjvxM-57">
          <mxGeometry width="50" height="50" relative="1" as="geometry">
            <mxPoint x="181.24" y="689.13" as="sourcePoint" />
            <mxPoint x="561.24" y="599.13" as="targetPoint" />
            <Array as="points">
              <mxPoint x="181.24" y="599.13" />
            </Array>
          </mxGeometry>
        </mxCell>
        <mxCell id="FxIcAEctN6eVur0ZjvxM-71" value="迁移" style="text;html=1;strokeColor=none;fillColor=none;align=center;verticalAlign=middle;whiteSpace=wrap;rounded=0;fontSize=24;fontStyle=1" vertex="1" parent="1">
          <mxGeometry x="181.24" y="569.13" width="110" height="20" as="geometry" />
        </mxCell>
        <mxCell id="FxIcAEctN6eVur0ZjvxM-72" value="初始化网络" style="text;html=1;strokeColor=none;fillColor=none;align=center;verticalAlign=middle;whiteSpace=wrap;rounded=0;fontSize=24;fontStyle=1" vertex="1" parent="1">
          <mxGeometry x="679.61" y="581.13" width="200" height="20" as="geometry" />
        </mxCell>
        <mxCell id="FxIcAEctN6eVur0ZjvxM-73" value="" style="shape=curlyBracket;whiteSpace=wrap;html=1;rounded=1;strokeWidth=2;fontSize=24;fontColor=#000000;dashed=1;" vertex="1" parent="1">
          <mxGeometry x="335" y="282.81" width="20" height="260" as="geometry" />
        </mxCell>
        <mxCell id="FxIcAEctN6eVur0ZjvxM-74" value="BERT词嵌入模块" style="rounded=1;whiteSpace=wrap;html=1;strokeWidth=1;fontSize=24;dashed=1;" vertex="1" parent="1">
          <mxGeometry x="101.24000000000001" y="387.80999999999995" width="190" height="50" as="geometry" />
        </mxCell>
        <mxCell id="FxIcAEctN6eVur0ZjvxM-75" value="BiLSTM-CRF &lt;br&gt;模块" style="rounded=1;whiteSpace=wrap;html=1;strokeWidth=1;fontSize=24;dashed=1;" vertex="1" parent="1">
          <mxGeometry x="949.5" y="773.26" width="190" height="50" as="geometry" />
        </mxCell>
        <mxCell id="FxIcAEctN6eVur0ZjvxM-76" value="" style="shape=curlyBracket;whiteSpace=wrap;html=1;rounded=1;strokeWidth=2;fontSize=24;fontColor=#000000;rotation=-180;dashed=1;" vertex="1" parent="1">
          <mxGeometry x="905" y="640.13" width="20" height="316.26" as="geometry" />
        </mxCell>
        <mxCell id="FxIcAEctN6eVur0ZjvxM-77" value="迁移学习模块" style="rounded=1;whiteSpace=wrap;html=1;strokeWidth=1;fontSize=24;dashed=1;strokeColor=#66B2FF;" vertex="1" parent="1">
          <mxGeometry x="900" y="7" width="200" height="50" as="geometry" />
        </mxCell>
        <mxCell id="FxIcAEctN6eVur0ZjvxM-78" value="" style="endArrow=none;html=1;fontSize=24;fontColor=#000000;rounded=0;strokeWidth=2;dashed=1;entryX=0;entryY=0.5;entryDx=0;entryDy=0;fillColor=#dae8fc;strokeColor=#6c8ebf;" edge="1" parent="1" source="FxIcAEctN6eVur0ZjvxM-57" target="FxIcAEctN6eVur0ZjvxM-77">
          <mxGeometry width="50" height="50" relative="1" as="geometry">
            <mxPoint x="10" y="717" as="sourcePoint" />
            <mxPoint x="940" y="527" as="targetPoint" />
            <Array as="points">
              <mxPoint x="10" y="736" />
              <mxPoint x="10" y="32" />
            </Array>
          </mxGeometry>
        </mxCell>
        <mxCell id="FxIcAEctN6eVur0ZjvxM-79" value="" style="endArrow=none;html=1;dashed=1;strokeColor=#6c8ebf;strokeWidth=2;fontSize=24;fontColor=#000000;entryX=0.5;entryY=1;entryDx=0;entryDy=0;exitX=0.451;exitY=0;exitDx=0;exitDy=0;exitPerimeter=0;fillColor=#dae8fc;" edge="1" parent="1" source="FxIcAEctN6eVur0ZjvxM-54" target="FxIcAEctN6eVur0ZjvxM-77">
          <mxGeometry width="50" height="50" relative="1" as="geometry">
            <mxPoint x="980" y="177" as="sourcePoint" />
            <mxPoint x="1030" y="127" as="targetPoint" />
          </mxGeometry>
        </mxCell>
        <mxCell id="FxIcAEctN6eVur0ZjvxM-80" value="" style="ellipse;whiteSpace=wrap;html=1;aspect=fixed;labelBackgroundColor=none;fontFamily=Georgia;fontSize=15;" vertex="1" parent="1">
          <mxGeometry x="448.61" y="507.30999999999995" width="35.5" height="35.5" as="geometry" />
        </mxCell>
        <mxCell id="FxIcAEctN6eVur0ZjvxM-81" value="" style="ellipse;whiteSpace=wrap;html=1;aspect=fixed;labelBackgroundColor=none;fontFamily=Georgia;fontSize=15;" vertex="1" parent="1">
          <mxGeometry x="534.61" y="507.30999999999995" width="35.5" height="35.5" as="geometry" />
        </mxCell>
        <mxCell id="FxIcAEctN6eVur0ZjvxM-82" value="" style="ellipse;whiteSpace=wrap;html=1;aspect=fixed;labelBackgroundColor=none;fontFamily=Georgia;fontSize=15;" vertex="1" parent="1">
          <mxGeometry x="625.36" y="507.30999999999995" width="35.5" height="35.5" as="geometry" />
        </mxCell>
      </root>
    </mxGraphModel>
  </diagram>
</mxfile>
